<?xml version="1.0" encoding="UTF-8" standalone="no"?>
<svg width="71px" height="89px" viewBox="0 0 71 89" version="1.1" xmlns="http://www.w3.org/2000/svg" xmlns:xlink="http://www.w3.org/1999/xlink" xmlns:sketch="http://www.bohemiancoding.com/sketch/ns">
    <!-- Generator: Sketch 3.0.4 (8053) - http://www.bohemiancoding.com/sketch -->
    <title>icon</title>
    <desc>Created with Sketch.</desc>
    <defs></defs>
    <g id="Page-1" stroke="none" stroke-width="1" fill="none" fill-rule="evenodd" sketch:type="MSPage">
        <path d="M65.7333333,28.3333333 L60.7429167,28.3333333 C59.4654167,28.3333333 58.4329167,29.3658667 58.4329167,30.6418667 C58.4329167,30.7768 58.4475,30.9029333 58.4679167,31.0290667 C58.50875,31.164 58.5466667,31.3018667 58.57875,31.4368 L58.57875,31.4485333 C58.7654167,32.2024 58.8616667,32.9944 58.8616667,33.8069333 C58.8616667,33.9448 58.8529167,34.0826667 58.8470833,34.2205333 L56.8054167,56.8746667 C56.7995833,56.9186667 56.7966667,56.9626667 56.7879167,57.0037333 C56.7820833,57.0888 56.7704167,57.1650667 56.75875,57.2442667 C56.4641667,59.1216 55.5075,60.8434667 54.0666667,62.0901333 C53.24125,62.8029333 52.2904167,63.3397333 51.2695833,63.6712 C51.22875,63.6829333 51.1879167,63.6976 51.1441667,63.7093333 C50.3479167,63.9850667 49.75,64.6861333 49.6216667,65.5426667 C49.6158333,65.5426667 49.6158333,65.5426667 49.6216667,65.5426667 L49.5925,65.8858667 L49.5925,65.8888 L48.5979167,78.3378667 L48.5833333,78.4786667 L48.5833333,78.4992 L48.5833333,78.5930667 C48.5833333,79.872 49.6158333,80.9045333 50.8933333,80.9045333 L57.905,80.9045333 C59.3983333,80.9045333 60.635,79.8309333 60.88875,78.4112 L60.9354167,77.8216 L62.5629167,57.4848 C62.5629167,57.4173333 62.5658333,57.3528 62.5775,57.2853333 C62.6941667,56.3290667 63.4845833,55.5810667 64.4558333,55.5194667 C64.4966667,55.5194667 64.5433333,55.5165333 64.5870833,55.5165333 C64.6308333,55.5165333 64.6745833,55.5194667 64.7154167,55.5194667 L65.6225,55.5194667 L65.6225,55.5165333 C67.13625,55.5165333 68.3991667,54.3989333 68.6208333,52.9410667 L68.6208333,52.9058667 L68.65,52.6037333 L70.4175,33.0178667 C70.4175,30.4277333 68.3233333,28.3333333 65.7333333,28.3333333 Z M50.84375,23.9069333 C50.9954167,23.9509333 51.1529167,23.9978667 51.3104167,24.036 C52.13875,24.2501333 53.0020833,24.3645333 53.8975,24.3645333 C59.6229167,24.3645333 64.2633333,19.7210667 64.2633333,13.9981333 C64.2633333,8.27226667 59.6229167,3.62586667 53.8975,3.62586667 C53.6058333,3.62586667 53.3170833,3.6376 53.0341667,3.664 C52.9641667,3.66986667 52.9029167,3.6728 52.83875,3.6816 C52.8125,3.68453333 52.7891667,3.68453333 52.7658333,3.69333333 C51.6575,3.86053333 50.80875,4.8168 50.80875,5.97253333 C50.80875,6.19546667 50.84375,6.41546667 50.8991667,6.61493333 C50.93125,6.7 50.9575,6.77626667 50.9866667,6.8584 C50.9866667,6.8584 50.9925,6.8672 50.9925,6.87013333 C51.5495833,8.52453333 51.8558333,10.2962667 51.8558333,12.1296 C51.8558333,15.1392 51.0391667,17.9610667 49.6216667,20.3869333 C49.6216667,20.3928 49.6158333,20.3986667 49.6158333,20.4045333 C49.5691667,20.4778667 49.5283333,20.5541333 49.4845833,20.6245333 C49.3125,20.9442667 49.21625,21.3109333 49.21625,21.6952 C49.21625,22.7365333 49.9016667,23.6106667 50.84375,23.9069333 Z M48.7816667,59.4442667 C50.51125,59.4442667 51.9433333,58.1741333 52.2,56.5109333 L52.2,56.4698667 L52.2291667,56.1325333 L54.2416667,33.8069333 C54.2416667,30.856 51.8558333,28.4653333 48.9070833,28.4653333 L21.9366667,28.4653333 C18.9879167,28.4653333 16.5991667,30.856 16.5991667,33.8069333 L18.5941667,55.9624 L18.6554167,56.6282667 C18.95875,58.2328 20.3645833,59.4442667 22.0533333,59.4442667 L22.0533333,59.4472 L23.1004167,59.4472 C23.1470833,59.4442667 23.1995833,59.4442667 23.24625,59.4442667 C23.29875,59.4442667 23.3454167,59.4442667 23.3979167,59.4472 C24.2670833,59.5058667 25.005,60.0397333 25.3491667,60.7906667 C25.4366667,60.9901333 25.5008333,61.2013333 25.5329167,61.4213333 C25.5475,61.5210667 25.55625,61.6208 25.55625,61.7234667 L27.4083333,84.9437333 L27.4520833,85.4658667 C27.7116667,87.1144 29.1408333,88.3786667 30.8616667,88.3786667 L39.9908333,88.3786667 C41.6854167,88.3786667 43.1,87.1525333 43.38875,85.5333333 L43.4441667,84.8674667 L45.2933333,61.6853333 C45.2933333,61.6090667 45.3020833,61.5357333 45.3079167,61.4653333 C45.34,61.2277333 45.4041667,60.996 45.5004167,60.7906667 C45.8445833,60.0397333 46.5854167,59.5058667 47.4545833,59.4472 C47.5041667,59.4442667 47.5508333,59.4442667 47.6033333,59.4442667 C47.65,59.4442667 47.7025,59.4442667 47.7491667,59.4472 L48.7816667,59.4472 L48.7816667,59.4442667 Z M35.4204167,23.9450667 C39.31125,23.9450667 42.75875,22.0706667 44.91125,19.1696 C46.3725,17.2042667 47.2358333,14.7696 47.2358333,12.1296 C47.2358333,10.3490667 46.8391667,8.65066667 46.1275,7.13413333 C44.24625,3.10373333 40.1629167,0.314133333 35.4204167,0.314133333 C30.6866667,0.314133333 26.5945833,3.10666667 24.71625,7.13413333 C24.0104167,8.65653333 23.6108333,10.3490667 23.6108333,12.1296 C23.6108333,14.7696 24.4770833,17.2042667 25.9325,19.1608 C28.085,22.0706667 31.5354167,23.9450667 35.4204167,23.9450667 Z M22.2429167,78.3173333 L21.2570833,65.8888 L21.2570833,65.8858667 L21.225,65.5426667 L21.225,65.5368 C21.0995833,64.7066667 20.5308333,64.0202667 19.7666667,63.7298667 C19.685,63.7093333 19.60625,63.6829333 19.5216667,63.6536 L19.51,63.6536 C16.7916667,62.7442667 14.6770833,60.4298667 14.1170833,57.4848 C14.0908333,57.3410667 14.0675,57.1944 14.0558333,57.0448 L13.9945833,56.376 L12.0025,34.2205333 C11.9879167,34.0826667 11.9791667,33.9448 11.9791667,33.8069333 C11.9791667,32.9944 12.0783333,32.2141333 12.2620833,31.4602667 C12.2941667,31.3077333 12.3408333,31.1581333 12.3816667,31.0085333 C12.3991667,30.8912 12.4108333,30.768 12.4108333,30.6418667 C12.4108333,29.3658667 11.3783333,28.3333333 10.10375,28.3333333 L5.11333333,28.3333333 C2.52625,28.3333333 0.432083333,30.4277333 0.432083333,33.0178667 L2.18208333,52.4629333 L2.23166667,53.0466667 C2.49708333,54.4517333 3.73083333,55.5165333 5.21541667,55.5165333 L5.21541667,55.5194667 L6.12833333,55.5194667 C6.175,55.5194667 6.21583333,55.5165333 6.2625,55.5165333 C6.30625,55.5165333 6.35,55.5194667 6.39375,55.5194667 C7.35333333,55.5810667 8.13208333,56.3114667 8.26625,57.2530667 C8.28375,57.3410667 8.28666667,57.4232 8.28958333,57.5170667 L9.91416667,77.8890667 L9.95208333,78.3496 C10.1825,79.7957333 11.4366667,80.9045333 12.9475,80.9045333 L19.95625,80.9045333 C21.2308333,80.9045333 22.26625,79.872 22.26625,78.5930667 C22.26625,78.5666667 22.26625,78.5402667 22.2633333,78.5168 L22.2429167,78.3173333 Z M16.94625,24.3645333 C17.8008333,24.3645333 18.6320833,24.2589333 19.4283333,24.0624 C19.6208333,24.0154667 19.81625,23.9626667 20.0029167,23.9069333 C20.0145833,23.9010667 20.0233333,23.8981333 20.02625,23.8981333 C20.9595833,23.596 21.6304167,22.7277333 21.6304167,21.6952 C21.6304167,21.3109333 21.53125,20.9442667 21.365,20.6245333 C21.3183333,20.5541333 21.2745833,20.4778667 21.23375,20.4045333 C21.2308333,20.3986667 21.225,20.3928 21.2220833,20.3869333 C19.8075,17.9610667 18.99375,15.1392 18.99375,12.1296 C18.99375,10.2962667 19.3,8.52453333 19.8570833,6.87013333 L19.8570833,6.8584 C19.8891667,6.77626667 19.9183333,6.7 19.9445833,6.61493333 C20.0029167,6.41546667 20.0379167,6.19546667 20.0379167,5.97253333 C20.0379167,4.8168 19.1891667,3.86053333 18.0779167,3.69333333 C18.0575,3.68453333 18.0341667,3.68453333 18.0079167,3.6816 C17.94375,3.6728 17.8795833,3.66986667 17.8154167,3.664 C17.5325,3.6376 17.2408333,3.62586667 16.94625,3.62586667 C11.22375,3.62586667 6.58041667,8.27226667 6.58041667,13.9981333 C6.58041667,19.7210667 11.22375,24.3645333 16.94625,24.3645333 Z" id="icon" fill="#47A0DB" sketch:type="MSShapeGroup"></path>
    </g>
</svg>